<mxfile host="app.diagrams.net" modified="2024-04-26T13:17:49.613Z" agent="Mozilla/5.0 (Windows NT 10.0; Win64; x64) AppleWebKit/537.36 (KHTML, like Gecko) Chrome/124.0.0.0 Safari/537.36" etag="wPJAFs7EZDldCBvqx8TE" version="24.3.0" type="device">
  <diagram name="‫עמוד-1‬" id="8h9VHsXm6KzTX-80VtP1">
    <mxGraphModel dx="803" dy="438" grid="1" gridSize="10" guides="1" tooltips="1" connect="1" arrows="1" fold="1" page="1" pageScale="1" pageWidth="827" pageHeight="1169" math="0" shadow="0">
      <root>
        <mxCell id="0" />
        <mxCell id="1" parent="0" />
        <mxCell id="_ciQkOk7IWdwRXC-wEDi-1" value="start" style="rounded=1;whiteSpace=wrap;html=1;" parent="1" vertex="1">
          <mxGeometry x="80" y="10" width="120" height="50" as="geometry" />
        </mxCell>
        <mxCell id="_ciQkOk7IWdwRXC-wEDi-7" style="edgeStyle=orthogonalEdgeStyle;rounded=0;orthogonalLoop=1;jettySize=auto;html=1;exitX=0.5;exitY=1;exitDx=0;exitDy=0;" parent="1" source="_ciQkOk7IWdwRXC-wEDi-10" edge="1">
          <mxGeometry relative="1" as="geometry">
            <mxPoint x="140" y="310" as="targetPoint" />
            <mxPoint x="140" y="230" as="sourcePoint" />
          </mxGeometry>
        </mxCell>
        <mxCell id="_ciQkOk7IWdwRXC-wEDi-10" value="mul=a*b" style="rounded=0;whiteSpace=wrap;html=1;" parent="1" vertex="1">
          <mxGeometry x="80" y="250" width="120" height="30" as="geometry" />
        </mxCell>
        <mxCell id="_ciQkOk7IWdwRXC-wEDi-13" style="edgeStyle=orthogonalEdgeStyle;rounded=0;orthogonalLoop=1;jettySize=auto;html=1;" parent="1" source="_ciQkOk7IWdwRXC-wEDi-12" target="_ciQkOk7IWdwRXC-wEDi-14" edge="1">
          <mxGeometry relative="1" as="geometry">
            <mxPoint x="130" y="410" as="targetPoint" />
          </mxGeometry>
        </mxCell>
        <mxCell id="_ciQkOk7IWdwRXC-wEDi-12" value="mul" style="shape=document;whiteSpace=wrap;html=1;boundedLbl=1;" parent="1" vertex="1">
          <mxGeometry x="80" y="310" width="120" height="50" as="geometry" />
        </mxCell>
        <mxCell id="_ciQkOk7IWdwRXC-wEDi-14" value="end" style="rounded=1;whiteSpace=wrap;html=1;" parent="1" vertex="1">
          <mxGeometry x="80" y="390" width="120" height="30" as="geometry" />
        </mxCell>
        <mxCell id="IZV24Hp4p41yvuz8rQCT-1" value="a" style="shape=card;whiteSpace=wrap;html=1;" vertex="1" parent="1">
          <mxGeometry x="100" y="80" width="80" height="50" as="geometry" />
        </mxCell>
        <mxCell id="IZV24Hp4p41yvuz8rQCT-2" style="edgeStyle=orthogonalEdgeStyle;rounded=0;orthogonalLoop=1;jettySize=auto;html=1;entryX=0.5;entryY=0;entryDx=0;entryDy=0;entryPerimeter=0;" edge="1" parent="1" source="_ciQkOk7IWdwRXC-wEDi-1" target="IZV24Hp4p41yvuz8rQCT-1">
          <mxGeometry relative="1" as="geometry">
            <Array as="points">
              <mxPoint x="140" y="80" />
              <mxPoint x="140" y="80" />
            </Array>
          </mxGeometry>
        </mxCell>
        <mxCell id="IZV24Hp4p41yvuz8rQCT-8" value="" style="edgeStyle=orthogonalEdgeStyle;rounded=0;orthogonalLoop=1;jettySize=auto;html=1;entryX=0.5;entryY=0;entryDx=0;entryDy=0;" edge="1" parent="1" source="IZV24Hp4p41yvuz8rQCT-1" target="IZV24Hp4p41yvuz8rQCT-7">
          <mxGeometry relative="1" as="geometry">
            <mxPoint x="140" y="180" as="sourcePoint" />
            <mxPoint x="140" y="210" as="targetPoint" />
          </mxGeometry>
        </mxCell>
        <mxCell id="IZV24Hp4p41yvuz8rQCT-11" style="edgeStyle=orthogonalEdgeStyle;rounded=0;orthogonalLoop=1;jettySize=auto;html=1;entryX=0.5;entryY=0;entryDx=0;entryDy=0;" edge="1" parent="1" source="IZV24Hp4p41yvuz8rQCT-7" target="_ciQkOk7IWdwRXC-wEDi-10">
          <mxGeometry relative="1" as="geometry" />
        </mxCell>
        <mxCell id="IZV24Hp4p41yvuz8rQCT-7" value="b" style="shape=card;whiteSpace=wrap;html=1;" vertex="1" parent="1">
          <mxGeometry x="100" y="170" width="80" height="50" as="geometry" />
        </mxCell>
      </root>
    </mxGraphModel>
  </diagram>
</mxfile>
